HIERARCHY
ROOT Hips
{
	OFFSET 0.000000 0.000000 0.000000
	CHANNELS 6 Xposition Yposition Zposition Zrotation Yrotation Xrotation 
	JOINT LHipJoint
	{
		OFFSET 0.000000 0.000000 0.000000
		CHANNELS 3 Zrotation Yrotation Xrotation
		JOINT LeftUpLeg
		{
			OFFSET 1.363060 -1.794630 0.839290
			CHANNELS 3 Zrotation Yrotation Xrotation
			JOINT LeftLeg
			{
				OFFSET 2.448110 -6.726130 0.000000
				CHANNELS 3 Zrotation Yrotation Xrotation
				JOINT LeftFoot
				{
					OFFSET 2.562200 -7.039590 0.000000
					CHANNELS 3 Zrotation Yrotation Xrotation
					JOINT LeftToeBase
					{
						OFFSET 0.157640 -0.433110 2.322550
						CHANNELS 3 Zrotation Yrotation Xrotation
						End Site
						{
							OFFSET 0.000000 0.000000 0.000000
						}
					}
				}
			}
		}
	}
	JOINT RHipJoint
	{
		OFFSET 0.000000 0.000000 0.000000
		CHANNELS 3 Zrotation Yrotation Xrotation
		JOINT RightUpLeg
		{
			OFFSET -1.305520 -1.794630 0.839290
			CHANNELS 3 Zrotation Yrotation Xrotation
			JOINT RightLeg
			{
				OFFSET -2.542530 -6.985550 0.000000
				CHANNELS 3 Zrotation Yrotation Xrotation
				JOINT RightFoot
				{
					OFFSET -2.568260 -7.056230 0.000000
					CHANNELS 3 Zrotation Yrotation Xrotation
					JOINT RightToeBase
					{
						OFFSET -0.164730 -0.452590 2.363150
						CHANNELS 3 Zrotation Yrotation Xrotation
						End Site
						{
							OFFSET 0.000000 0.000000 0.000000
						}
					}
				}
			}
		}
	}
	JOINT LowerBack
	{
		OFFSET 0.000000 0.000000 0.000000
		CHANNELS 3 Zrotation Yrotation Xrotation
		JOINT Spine
		{
			OFFSET 0.028270 2.035590 -0.193380
			CHANNELS 3 Zrotation Yrotation Xrotation
			JOINT Spine1
			{
				OFFSET 0.056720 2.048850 -0.042750
				CHANNELS 3 Zrotation Yrotation Xrotation
				JOINT Neck
				{
					OFFSET 0.000000 0.000000 0.000000
					CHANNELS 3 Zrotation Yrotation Xrotation
					JOINT Neck1
					{
						OFFSET -0.054170 1.746240 0.172020
						CHANNELS 3 Zrotation Yrotation Xrotation
						JOINT Head
						{
							OFFSET 0.104070 1.761360 -0.123970
							CHANNELS 3 Zrotation Yrotation Xrotation
							End Site
							{
								OFFSET 0.000000 0.000000 0.000000
							}
						}
					}
				}
				JOINT LeftShoulder
				{
					OFFSET 0.000000 0.000000 0.000000
					CHANNELS 3 Zrotation Yrotation Xrotation
					JOINT LeftArm
					{
						OFFSET 3.362410 1.200890 -0.311210
						CHANNELS 3 Zrotation Yrotation Xrotation
						JOINT LeftForeArm
						{
							OFFSET 4.983000 -0.000000 -0.000000
							CHANNELS 3 Zrotation Yrotation Xrotation
							JOINT LeftHand
							{
								OFFSET 3.483560 -0.000000 -0.000000
								CHANNELS 3 Zrotation Yrotation Xrotation
								JOINT LeftFingerBase
								{
									OFFSET 0.000000 0.000000 0.000000
									CHANNELS 3 Zrotation Yrotation Xrotation
									JOINT LeftHandIndex1
									{
										OFFSET 0.715260 -0.000000 -0.000000
										CHANNELS 3 Zrotation Yrotation Xrotation
										End Site
										{
											OFFSET 0.000000 0.000000 0.000000
										}
									}
								}
								JOINT LThumb
								{
									OFFSET 0.000000 0.000000 0.000000
									CHANNELS 3 Zrotation Yrotation Xrotation
									End Site
									{
										OFFSET 0.000000 0.000000 0.000000
									}
								}
							}
						}
					}
				}
				JOINT RightShoulder
				{
					OFFSET 0.000000 0.000000 0.000000
					CHANNELS 3 Zrotation Yrotation Xrotation
					JOINT RightArm
					{
						OFFSET -3.136600 1.374050 -0.404650
						CHANNELS 3 Zrotation Yrotation Xrotation
						JOINT RightForeArm
						{
							OFFSET -5.241900 -0.000000 -0.000000
							CHANNELS 3 Zrotation Yrotation Xrotation
							JOINT RightHand
							{
								OFFSET -3.444170 -0.000000 -0.000000
								CHANNELS 3 Zrotation Yrotation Xrotation
								JOINT RightFingerBase
								{
									OFFSET 0.000000 0.000000 0.000000
									CHANNELS 3 Zrotation Yrotation Xrotation
									JOINT RightHandIndex1
									{
										OFFSET -0.622530 -0.000000 -0.000000
										CHANNELS 3 Zrotation Yrotation Xrotation
										End Site
										{
											OFFSET 0.000000 0.000000 0.000000
										}
									}
								}
								JOINT RThumb
								{
									OFFSET 0.000000 0.000000 0.000000
									CHANNELS 3 Zrotation Yrotation Xrotation
									End Site
									{
										OFFSET 0.000000 0.000000 0.000000
									}
								}
							}
						}
					}
				}
			}
		}
	}
}
MOTION
Frames: 9
Frame Time: 0.008333
3.874938 17.300047 1.276229 -174.342751 -71.729381 -174.957799 -11.824199 2.455427 -0.617231 -5.066373 26.517270 -14.849327 -2.838519 -0.948188 -4.466506 0.796056 6.355108 3.680114 1.297100 0.000000 -33.520500 9.309463 -1.046224 3.172048 3.116083 0.105944 -13.506481 3.206240 1.778358 -3.851972 0.994731 4.221994 7.328417 0.348801 -0.000000 -45.803301 1.941087 -4.750774 -3.633543 -0.301718 -5.034711 -3.514870 -8.664586 -4.840626 -1.914768 13.128958 -4.103452 -0.477872 -2.374007 -0.264424 1.999105 0.000000 0.000000 0.000000 18.811701 -3.863318 3.421469 20.552325 -62.445175 -76.979082 2.094183 3.953515 -0.102292 13.803080 -3.632798 -0.516499 -0.358831 0.518347 -0.000000 0.000000 0.000000 0.000000 0.000000 0.000000 0.000000 5.707169 -1.999939 -5.083705 94.472479 25.677299 46.000435 -178.807871 56.126836 179.881119 -7.628627 15.710668 -1.144332 0.082803 -1.107505 -0.000000 0.000000 0.000000 0.000000 0.000000 0.000000 0.000000 
3.863217 17.304165 1.265281 -175.095966 -71.419548 -174.117027 -11.839510 2.510578 -0.585113 -5.306300 26.467354 -14.897845 -2.846327 -0.948814 -4.489719 0.823423 6.587538 3.747159 1.350099 -0.000000 -33.390900 9.300064 -1.037372 3.251355 2.891232 0.310441 -13.615632 3.189139 1.798820 -3.968186 0.995897 4.174582 7.393601 0.335500 0.000001 -45.815800 1.886237 -4.879801 -3.776930 -0.289482 -5.163015 -3.487779 -8.627642 -4.961650 -1.712641 12.940743 -4.196094 -0.711156 -2.371072 -0.261179 1.932940 0.000000 0.000000 0.000000 18.448747 -2.561097 3.267982 20.402841 -63.011620 -78.123507 2.251764 2.895860 -0.102822 13.361362 -3.953193 -0.539874 -0.327020 0.537003 -0.000000 0.000000 0.000000 0.000000 0.000000 0.000000 0.000000 5.412026 -2.158213 -5.136226 94.836905 25.552502 46.432393 -178.790082 55.895428 179.883301 -7.308039 15.755860 -1.098053 0.070287 -1.108889 -0.000000 0.000000 0.000000 0.000000 0.000000 0.000000 0.000000 
3.853395 17.306994 1.252415 -175.936846 -70.904029 -173.239197 -11.855254 2.542276 -0.621763 -5.523647 26.577681 -14.894713 -2.858552 -0.941369 -4.366971 0.861348 6.909453 3.728566 1.408300 0.000000 -33.280700 9.288683 -1.033713 3.346700 2.613882 0.677206 -13.668246 3.165001 1.808071 -4.117811 1.004831 4.218792 7.470328 0.349500 0.000000 -45.809400 1.793140 -4.929576 -3.862729 -0.284079 -5.207510 -3.469268 -8.561281 -5.004763 -1.580775 12.704942 -4.352436 -0.885945 -2.408574 -0.261026 1.883777 0.000000 0.000000 0.000000 18.077152 -0.735391 2.663902 17.531451 -64.394822 -74.840342 2.374936 -0.335003 -0.103024 12.389084 -3.956265 -0.502833 -0.279579 0.564403 -0.000000 0.000000 0.000000 0.000000 0.000000 0.000000 0.000000 5.118118 -2.239148 -5.114889 95.049424 25.395209 46.694928 -178.801176 55.614335 179.885179 -7.036875 15.768860 -1.057712 0.061827 -1.115071 -0.000000 0.000000 0.000000 0.000000 0.000000 0.000000 0.000000 
3.845115 17.308129 1.238381 -176.759414 -70.210664 -172.422136 -11.868201 2.550293 -0.719692 -5.704921 26.839472 -14.852974 -2.874647 -0.928704 -4.108634 0.907174 7.300963 3.622916 1.467101 -0.000000 -33.201001 9.277730 -1.039580 3.454080 2.312373 1.171998 -13.675394 3.138280 1.807369 -4.295712 1.022686 4.364009 7.555765 0.393200 -0.000000 -45.803900 1.733163 -4.886049 -3.887359 -0.274239 -5.160426 -3.495024 -8.453376 -4.974963 -1.637164 12.367633 -4.535976 -0.917739 -2.483698 -0.265194 1.876973 0.000000 0.000000 0.000000 17.647928 1.198176 1.525047 10.069496 -65.676539 -63.203734 2.443503 -6.441776 -0.105700 11.461482 -2.720682 -0.339265 -0.239364 0.582640 -0.000000 0.000000 0.000000 0.000000 0.000000 0.000000 0.000000 4.746391 -2.255881 -4.991854 95.137505 25.127668 46.789951 -178.821132 55.349452 179.886197 -6.824917 15.759179 -1.025242 0.055551 -1.124994 -0.000000 0.000000 0.000000 0.000000 0.000000 0.000000 0.000000 
3.837605 17.307347 1.223764 -177.489741 -69.422071 -171.725042 -11.875969 2.530705 -0.867519 -5.845060 27.224236 -14.795278 -2.895802 -0.919076 -3.731888 0.956061 7.733316 3.438428 1.521300 -0.000000 -33.155300 9.267907 -1.066884 3.575606 2.013014 1.743671 -13.659244 3.111194 1.796318 -4.498646 1.048840 4.611575 7.642431 0.467900 0.000000 -45.817500 1.735399 -4.694999 -3.870276 -0.282201 -4.971771 -3.562357 -8.389542 -4.816656 -1.835074 11.998611 -4.729553 -0.839382 -2.565703 -0.271597 1.902048 0.000000 0.000000 0.000000 17.058798 2.865584 0.234586 0.149849 -65.751297 -47.949150 2.616551 -15.130572 -0.113756 10.953671 -0.944705 -0.152381 -0.197148 0.610117 0.000000 0.000000 0.000000 0.000000 0.000000 0.000000 0.000000 4.337930 -2.340335 -4.794244 95.096131 24.699984 46.667130 -178.804358 55.084972 179.885749 -6.683505 15.731246 -1.002057 0.048530 -1.134975 -0.000000 0.000000 0.000000 0.000000 0.000000 0.000000 0.000000 
3.830115 17.304667 1.209129 -178.096205 -68.629088 -171.189111 -11.879448 2.488335 -1.036150 -5.941172 27.703223 -14.740686 -2.922042 -0.918360 -3.254830 1.003324 8.172180 3.186292 1.565000 0.000001 -33.143200 9.256152 -1.128581 3.725827 1.739088 2.335118 -13.629297 3.085804 1.776064 -4.720591 1.082639 4.954945 7.724973 0.571800 0.000000 -45.862000 1.797604 -4.323188 -3.872387 -0.343064 -4.613042 -3.635440 -8.504364 -4.477358 -2.015708 11.700865 -4.927583 -0.686596 -2.634511 -0.278501 1.946093 0.000000 0.000000 0.000000 16.210265 3.907545 -0.680287 -8.182035 -64.443864 -35.911323 2.638869 -25.591702 -0.121108 10.496177 0.305464 -0.033066 -0.140250 0.659044 -0.000000 0.000000 0.000000 0.000000 0.000000 0.000000 0.000000 4.019259 -2.535974 -4.549321 94.887699 24.126921 46.237040 -178.716719 54.794435 179.883377 -6.627661 15.678119 -0.989716 0.039298 -1.143330 -0.000000 0.000000 0.000000 0.000000 0.000000 0.000000 0.000000 
3.822046 17.300190 1.195282 -178.557424 -67.869247 -170.835688 -11.881462 2.432015 -1.202960 -5.988317 28.252066 -14.702632 -2.950482 -0.924230 -2.700998 1.046809 8.587517 2.876274 1.591900 0.000000 -33.162300 9.239601 -1.219192 3.900148 1.513805 2.898484 -13.611447 3.065472 1.747169 -4.900457 1.122310 5.386332 7.775985 0.701101 0.000000 -45.942400 1.911689 -3.816363 -3.913902 -0.450671 -4.130121 -3.698496 -8.794113 -3.995064 -2.140492 11.487742 -5.127010 -0.451286 -2.697983 -0.286332 2.010867 0.000000 0.000000 0.000000 15.153320 4.144762 -1.145520 -14.055741 -62.115321 -28.153207 2.308419 -37.103797 -0.120127 9.674294 0.628190 -0.006976 -0.074918 0.715000 -0.000000 0.000000 0.000000 0.000000 0.000000 0.000000 0.000000 3.827834 -2.764259 -4.255372 94.498076 23.451724 45.504890 -178.581134 54.503244 179.879512 -6.659456 15.592813 -0.988287 0.029854 -1.150973 -0.000000 0.000000 0.000000 0.000000 0.000000 0.000000 0.000000 
3.813031 17.294064 1.183412 -178.846969 -67.157680 -170.668987 -11.884349 2.364692 -1.364097 -5.978783 28.846707 -14.691805 -2.978296 -0.931889 -2.096012 1.085015 8.951588 2.516700 1.596900 -0.000000 -33.209600 9.216135 -1.317645 4.069605 1.364714 3.405126 -13.765545 3.047794 1.688695 -4.692126 1.151680 5.896957 7.610816 0.850500 0.000000 -46.055000 2.062302 -3.253520 -3.960190 -0.570228 -3.595712 -3.746689 -9.149545 -3.448591 -2.223788 11.337815 -5.334438 -0.180708 -2.765041 -0.294813 2.083609 0.000000 0.000000 0.000000 13.989621 3.827401 -1.329634 -18.349336 -59.344793 -23.132316 1.742110 -48.775050 -0.110118 8.434316 0.121284 -0.046467 -0.014365 0.764497 -0.000000 0.000000 0.000000 0.000000 0.000000 0.000000 0.000000 3.728063 -2.975025 -3.933533 93.942528 22.741553 44.566084 -178.447334 54.229820 179.875220 -6.765486 15.476442 -0.996273 0.023553 -1.158442 -0.000000 0.000000 0.000000 0.000000 0.000000 0.000000 0.000000 
3.802906 17.286647 1.174624 -178.952178 -66.507665 -170.680063 -11.891395 2.288459 -1.519623 -5.906851 29.461105 -14.714217 -3.003771 -0.936890 -1.467164 1.117094 9.243414 2.116672 1.577400 -0.000000 -33.279900 9.185447 -1.414405 4.218118 1.301806 3.816563 -13.900904 3.046261 1.635996 -4.498289 1.184634 6.455905 7.462889 1.012500 0.000000 -46.186500 2.249618 -2.695479 -3.983612 -0.671221 -3.066328 -3.772041 -9.476640 -2.899700 -2.247532 11.220509 -5.556894 0.047501 -2.838588 -0.302943 2.142818 0.000000 0.000000 0.000000 12.814890 3.400149 -1.373761 -22.022167 -56.688500 -19.405677 1.126381 -59.889142 -0.095170 6.979718 -0.846105 -0.098640 0.032576 0.804840 -0.000000 0.000000 0.000000 0.000000 0.000000 0.000000 0.000000 3.673672 -3.163848 -3.621892 93.260204 22.072027 43.542225 -178.352450 53.995265 179.871424 -6.923182 15.336412 -1.010802 0.022389 -1.165464 -0.000000 0.000000 0.000000 0.000000 0.000000 0.000000 0.000000 
